<?xml version="1.0" encoding="UTF-8"?>
<svg width="32px" height="32px" viewBox="0 0 32 32" version="1.1" xmlns="http://www.w3.org/2000/svg" xmlns:xlink="http://www.w3.org/1999/xlink">
    <title>ETH</title>
    <g id="页面-1" stroke="none" stroke-width="1" fill="none" fill-rule="evenodd">
        <g id="flash-pool" transform="translate(-255.000000, -862.000000)" fill-rule="nonzero">
            <g id="编组-6" transform="translate(255.000000, 700.000000)">
                <g id="1" transform="translate(0.000000, 138.000000)">
                    <g id="ETH" transform="translate(0.000000, 24.000000)">
                        <path d="M15.9893464,0 C7.15868013,0 0,7.15868013 0,15.9893464 C0,24.8200126 7.15868013,31.9786927 15.9893464,31.9786927 C24.8200126,31.9786927 31.9786927,24.8200126 31.9786927,15.9893464 C31.9786927,7.15868016 24.8200126,0 15.9893464,0 Z" id="形状" fill="#F6F6F6"></path>
                        <path d="M9.46325244,17.6443996 L15.782059,21.3439634 L15.782059,26.5827311 L9.46325244,17.6443996 Z M22.5109248,17.6443996 L16.1921183,26.5827311 L16.1921183,21.3439634 L22.5109248,17.6443996 Z M15.782059,13.5209479 L15.782059,20.0339188 L9.42049678,16.3075444 L15.782059,13.5209479 Z M16.1921182,13.521089 L22.558337,16.309661 L16.1921182,20.0340599 L16.1921182,13.521089 Z M16.1921182,5.42263103 L22.4352911,15.808164 L16.1921182,13.0732129 L16.1921182,5.42263103 Z M15.782059,5.42573541 L15.782059,13.0732129 L9.62538528,15.7697827 L15.782059,5.42573541 Z" id="形状结合" fill="#080808"></path>
                    </g>
                </g>
            </g>
        </g>
    </g>
</svg>