<?xml version="1.0" encoding="UTF-8"?>
<svg width="32px" height="32px" viewBox="0 0 32 32" version="1.1" xmlns="http://www.w3.org/2000/svg" xmlns:xlink="http://www.w3.org/1999/xlink">
    <title>oDAI备份</title>
    <defs>
        <linearGradient x1="50%" y1="-14.16662%" x2="50%" y2="110.500002%" id="linearGradient-1">
            <stop stop-color="#F9A606" offset="0%"></stop>
            <stop stop-color="#FBCC5F" offset="100%"></stop>
        </linearGradient>
    </defs>
    <g id="页面-1" stroke="none" stroke-width="1" fill="none" fill-rule="evenodd">
        <g id="flash-pool" transform="translate(-247.000000, -942.000000)" fill-rule="nonzero">
            <g id="编组-6" transform="translate(247.000000, 700.000000)">
                <g id="1备份" transform="translate(0.000000, 218.000000)">
                    <g id="oDAI备份" transform="translate(0.000000, 24.000000)">
                        <ellipse id="椭圆形" fill="#F9FAFB" cx="16" cy="15.9157895" rx="16" ry="15.8315789"></ellipse>
                        <path d="M16,31.7473684 C24.8365617,31.7473684 32,24.6593347 32,15.9157895 C32,7.17224421 24.8365617,0.0842172632 16,0.0842172632 C7.1634383,0.0842172632 0,7.17224421 0,15.9157895 C0,24.6593347 7.1634383,31.7473684 16,31.7473684 Z" id="路径" fill="url(#linearGradient-1)"></path>
                        <path d="M25.1475745,13.3035789 L23.2488851,13.3035789 C22.2035745,10.4327747 19.3929191,8.46440421 15.6862298,8.46440421 L9.59022979,8.46440421 L9.59022979,13.3035789 L7.47291915,13.3035789 L7.47291915,15.0397642 L9.59022979,15.0397642 L9.59022979,16.8603958 L7.47291915,16.8603958 L7.47291915,18.5966147 L9.59022979,18.5966147 L9.59022979,23.3777516 L15.6862298,23.3777516 C19.3502298,23.3777516 22.1395745,21.4251789 23.2115745,18.5966147 L25.1475745,18.5966147 L25.1475745,16.8603958 L23.6382298,16.8603958 C23.6755745,16.5543411 23.6969191,16.2377095 23.6969191,15.9210779 L23.6969191,15.8788379 C23.6969191,15.5938695 23.6808851,15.3141895 23.6542298,15.0397642 L25.1529191,15.0397642 L25.1529191,13.3035789 L25.1475745,13.3035789 Z M11.2969191,10.0106105 L15.6862298,10.0106105 C18.4062298,10.0106105 20.4275745,11.3351747 21.3609191,13.2982905 L11.2969191,13.2982905 L11.2969191,10.0106105 Z M15.6862298,21.81568 L11.2969191,21.81568 L11.2969191,18.5913263 L21.3502298,18.5913263 C20.4115745,20.5227789 18.3955745,21.81568 15.6862298,21.81568 Z M21.9315745,15.9579958 C21.9315745,16.2640842 21.9102298,16.5648842 21.8675745,16.8551411 L11.2969191,16.8551411 L11.2969191,15.0345095 L21.8729191,15.0345095 C21.9102298,15.3194779 21.9315745,15.6149895 21.9315745,15.9157895 L21.9315745,15.9579958 Z" id="形状" fill="#FFFFFF"></path>
                    </g>
                </g>
            </g>
        </g>
    </g>
</svg>