<?xml version="1.0" encoding="UTF-8"?>
<svg width="32px" height="32px" viewBox="0 0 32 32" version="1.1" xmlns="http://www.w3.org/2000/svg" xmlns:xlink="http://www.w3.org/1999/xlink">
    <title>USDT</title>
    <g id="页面-1" stroke="none" stroke-width="1" fill="none" fill-rule="evenodd">
        <g id="flash-pool" transform="translate(-253.000000, -1107.000000)" fill-rule="nonzero">
            <g id="编组-6" transform="translate(247.000000, 700.000000)">
                <g id="1备份-3" transform="translate(6.000000, 378.000000)">
                    <g id="USDT" transform="translate(0.000000, 29.000000)">
                        <path d="M0,16 C0,24.8368 7.1632,32 16,32 C24.8368,32 32,24.8368 32,16 C32,7.1632 24.8368,0 16,0 C7.1632,0 0,7.1632 0,16 Z" id="路径" fill="#28A17C"></path>
                        <path d="M23.264,15.0448 C23.264,15.6608 20.9248,16.1776 17.7656,16.3216 L17.5608,16.3296 L17.5384,16.3296 L17.3464,16.3368 L17.3264,16.3368 C17.184,16.3416 17.04,16.3456 16.8944,16.3488 L16.8848,16.3488 L16.6888,16.3528 L16.6336,16.3528 L16.4792,16.3552 L15.5008,16.3552 L15.348,16.3528 L15.2952,16.3528 L15.112,16.3496 L15.092,16.3496 C14.876,16.3448 14.6624,16.3384 14.452,16.3296 L14.4496,16.3296 L14.2408,16.3216 C11.0648,16.18 8.7104,15.6608 8.7104,15.0416 C8.7104,14.4224 11.0656,13.9056 14.2408,13.7616 L14.2408,15.7208 C15.4139121,15.7808676 16.589343,15.7803336 17.7624,15.7192 L17.7624,13.7672 C20.924,13.9112 23.264,14.428 23.264,15.0448 L23.264,15.0448 Z M22.708,11.2288 L22.708,8 L9.3,8 L9.3,11.2296 L14.244,11.2296 L14.244,13.3392 C10.2256,13.5168 7.2,14.2984 7.2,15.2352 C7.2,16.172 10.2256,16.9536 14.244,17.1312 L14.244,23.9024 L17.7656,23.9024 L17.7656,17.1304 C21.768,16.9496 24.7776,16.1696 24.7776,15.2352 C24.7776,14.3008 21.768,13.5208 17.7656,13.3408 L17.7656,11.2288 L22.708,11.2288 Z" id="形状" fill="#FFFFFF"></path>
                    </g>
                </g>
            </g>
        </g>
    </g>
</svg>