<?xml version="1.0" encoding="UTF-8"?>
<svg width="32px" height="32px" viewBox="0 0 32 32" version="1.1" xmlns="http://www.w3.org/2000/svg" xmlns:xlink="http://www.w3.org/1999/xlink">
    <title>USDC</title>
    <g id="页面-1" stroke="none" stroke-width="1" fill="none" fill-rule="evenodd">
        <g id="flash-pool" transform="translate(-252.000000, -1267.000000)" fill-rule="nonzero">
            <g id="编组-6" transform="translate(247.000000, 700.000000)">
                <g id="1备份-5" transform="translate(5.000000, 538.000000)">
                    <g id="USDC" transform="translate(0.000000, 29.000000)">
                        <path d="M0,16 C0,24.836556 7.163444,32 16,32 C24.836556,32 32,24.836556 32,16 C32,7.163444 24.836556,0 16,0 C7.163444,0 0,7.163444 0,16 Z" id="路径" fill="#2775C9"></path>
                        <path d="M15.04,10.06 L15.04,9.06 C15.04,8.52980664 15.4698066,8.1 16,8.1 C16.5301934,8.1 16.96,8.52980664 16.96,9.06 L16.96,10.056 C18.697,10.317 19.888,11.305 20.206,12.712 C20.2439923,12.8800931 20.2034746,13.0563414 20.0958902,13.1909679 C19.9883057,13.3255943 19.8253331,13.4039849 19.653,13.404 L19.134,13.404 C18.714,13.404 18.331,13.161 18.153,12.781 C17.821,12.077 17.036,11.671 15.991,11.671 C14.683,11.671 13.801,12.313 13.801,13.275 C13.801,14.045 14.387,14.495 15.806,14.831 L17.138,15.136 C19.488,15.674 20.482,16.644 20.482,18.369 C20.482,20.279 19.148,21.572 16.96,21.877 L16.96,23.033 C16.96,23.375975 16.7770251,23.6928969 16.48,23.8643844 C16.182975,24.0358719 15.817025,24.0358719 15.52,23.8643844 C15.2229749,23.6928969 15.04,23.375975 15.04,23.033 L15.04,21.895 C13.102,21.661 11.792,20.635 11.485,19.065 C11.4578317,18.925206 11.4945455,18.7805846 11.5851034,18.6706767 C11.6756613,18.5607688 11.8105905,18.4970714 11.953,18.497 L12.741,18.497 C13.098,18.497 13.423,18.702 13.576,19.025 C13.939,19.788 14.868,20.261 16.031,20.261 C17.427,20.261 18.397,19.571 18.397,18.609 C18.397,17.775 17.803,17.294 16.344,16.949 L14.844,16.596 C12.71,16.106 11.7,15.08 11.7,13.428 C11.7,11.648 13.043,10.369 15.04,10.059 L15.04,10.06 Z M4,16 C4,10.705 7.456,6.214 12.244,4.644 C12.4193069,4.58632786 12.6116331,4.61614893 12.7612437,4.72420101 C12.9108543,4.8322531 12.9996308,5.00545071 13,5.19 L13,5.529 C13,6.044 12.687,6.509 12.21,6.702 C8.525,8.194 5.928,11.795 5.928,16 C5.928,20.203 8.522,23.803 12.203,25.296 C12.684,25.491 12.999,25.958 12.999,26.477 L12.999,26.759 C12.9990736,26.955665 12.9046315,27.1403836 12.7451627,27.2554784 C12.5856939,27.3705733 12.3806296,27.4020202 12.194,27.34 C7.432,25.755 4,21.277 4,16 Z M27.9999997,16 C27.9999997,21.265 24.584,25.734 19.84,27.329 C19.6457555,27.3947806 19.4317104,27.3628595 19.2651114,27.2432652 C19.0985124,27.1236709 18.999805,26.9310804 18.9999997,26.726 L18.9999997,26.5 C18.9999997,25.968 19.322,25.49 19.814,25.288 C23.485,23.791 26.071,20.196 26.071,16 C26.071,11.808 23.491,8.216 19.825,6.716 C19.3261729,6.5121457 19.0001556,6.02687386 18.9999997,5.488 L18.9999997,5.282 C19.0001257,5.07533355 19.0997331,4.88136459 19.2676228,4.7608487 C19.4355125,4.64038585 19.6511528,4.60800833 19.847,4.674 C24.587,6.271 27.9999997,10.739 27.9999997,16 Z" id="形状" fill="#FFFFFF"></path>
                    </g>
                </g>
            </g>
        </g>
    </g>
</svg>