<?xml version="1.0" encoding="UTF-8"?>
<svg width="64px" height="64px" viewBox="0 0 64 64" version="1.1" xmlns="http://www.w3.org/2000/svg" xmlns:xlink="http://www.w3.org/1999/xlink">
    <title>ONG</title>
    <g id="WING" stroke="none" stroke-width="1" fill="none" fill-rule="evenodd">
        <g id="画板" transform="translate(-913.000000, -137.000000)">
            <g id="ONG" transform="translate(913.000000, 137.000000)">
                <circle id="椭圆形" fill="#FFFFFF" cx="32" cy="32" r="32"></circle>
                <path d="M43.9068983,42.3964454 L19.7743228,18.0076855 L19.7743228,30.2020655 M19.7845702,30.2020655 C19.7845702,33.3275158 20.9630187,36.4427188 23.3199157,38.8303579 C28.0337096,43.5953887 35.6680063,43.5953887 40.3818002,38.8303579 L23.3199157,21.5737731 M19.7845702,18.0076855 L43.9171457,42.3964454 L43.9171457,30.2020655 M43.9068983,30.2020655 C43.9068983,27.0766152 42.7284498,23.9614122 40.3715529,21.5737731 C35.6577589,16.8087423 28.0234622,16.8087423 23.3096683,21.5737731 L40.3818002,38.8201105 M19.7845702,40.8183492 L19.7845702,45.4091746 M31.8969712,45.4091746 L31.8969712,50 M44.0093721,45.0607637 L44.0093721,48.1247298" id="形状" stroke="#48A3FF" stroke-width="2" stroke-linecap="round" stroke-linejoin="round"></path>
            </g>
        </g>
    </g>
</svg>