<?xml version="1.0" encoding="UTF-8"?>
<svg width="64px" height="64px" viewBox="0 0 64 64" version="1.1" xmlns="http://www.w3.org/2000/svg" xmlns:xlink="http://www.w3.org/1999/xlink">
    <title>wing logo备份</title>
    <g id="Page-1" stroke="none" stroke-width="1" fill="none" fill-rule="evenodd">
        <g id="Candidate-FlashPool" transform="translate(-1173.000000, -530.000000)">
            <g id="supply备份" transform="translate(980.000000, 450.000000)">
                <g id="wing-logo备份" transform="translate(193.000000, 80.000000)">
                    <circle id="椭圆形" fill="#FFFFFF" cx="32" cy="32" r="32"></circle>
                    <path d="M37.7692953,29.4010067 L34.5763423,34.9379195 L31.3825503,40.4748322 L28.1854027,46 L24.9916107,40.4672819 L28.1845638,34.9303691 L31.3817114,29.397651 L26.5318792,21 L32.9177852,21 L34.5763423,23.8674497 L37.7692953,29.4010067 Z M20.1409396,21 L13.75,21 L21.7944631,34.9337248 L24.9916107,29.4010067 L20.1409396,21 Z M47.2810403,23.8674497 L45.6233221,21 L39.2365772,21 L44.0880872,29.4010067 L40.8901007,34.9379195 L37.6971477,40.4748322 L40.8901007,46 L44.0880872,40.4672819 L47.2810403,34.9303691 L50.4739933,29.397651 L47.2810403,23.8674497 Z" id="Shape" fill="#000000" fill-rule="nonzero"></path>
                </g>
            </g>
        </g>
    </g>
</svg>