<?xml version="1.0" encoding="UTF-8"?>
<svg width="32px" height="32px" viewBox="0 0 32 32" version="1.1" xmlns="http://www.w3.org/2000/svg" xmlns:xlink="http://www.w3.org/1999/xlink">
    <title>ontd</title>
    <defs>
        <polygon id="path-1" points="0.0002 0.0001 32 0.0001 32 32 0.0002 32"></polygon>
    </defs>
    <g id="Page-1" stroke="none" stroke-width="1" fill="none" fill-rule="evenodd">
        <g id="Cross-Chain-Swap-两个钱包都连接好" transform="translate(-1036.000000, -687.000000)">
            <g id="编组-8" transform="translate(735.000000, 340.000000)">
                <g id="ontd" transform="translate(301.000000, 347.000000)">
                    <g id="Fill-1-Clipped">
                        <mask id="mask-2" fill="white">
                            <use xlink:href="#path-1"></use>
                        </mask>
                        <g id="path-1"></g>
                        <path d="M16.0002,0.0001 C24.8362,0.0001 32.0002,7.1631 32.0002,16.0001 C32.0002,24.8361 24.8362,32.0001 16.0002,32.0001 C7.1632,32.0001 0.0002,24.8361 0.0002,16.0001 C0.0002,7.1631 7.1632,0.0001 16.0002,0.0001" id="Fill-1" fill="#FFFFFF" fill-rule="nonzero" mask="url(#mask-2)"></path>
                    </g>
                    <path d="M11.4538,10.4 L23.1538,22.2 L23.1538,17.1 L23.1538,17 C23.2538,13.3 21.0538,10.1 17.8538,9.1 C14.9538,8.3 12.3538,9.7 11.4538,10.4 M23.6538,23.8 C23.5538,23.8 23.3538,23.7 23.2538,23.7 L10.2538,10.7 C10.1538,10.6 10.0538,10.5 10.1538,10.3 C10.1538,10.2 10.2538,10 10.3538,9.9 C10.4538,9.8 13.9538,6.9 18.1538,8.1 C21.7538,9.2 24.2538,12.8 24.1538,16.9 L24.1538,17 L24.1538,23.4 C24.1538,23.6 24.0538,23.8 23.8538,23.9 C23.7538,23.8 23.7538,23.8 23.6538,23.8" id="Fill-3" fill="#18A3FF" fill-rule="nonzero"></path>
                    <path d="M9.2536,14.6998 C9.2536,14.7998 9.2536,14.7998 9.2536,14.6998 C9.1536,18.4998 11.3536,21.6998 14.5536,22.6998 C17.4536,23.5998 20.0536,22.0998 20.9536,21.3998 L9.2536,9.6998 L9.2536,14.6998 Z M16.3536,23.9998 C15.6536,23.9998 14.9536,23.8998 14.2536,23.6998 C10.6536,22.5998 8.1536,18.9998 8.2536,14.8998 L8.2536,14.7998 L8.2536,8.3998 C8.2536,8.1998 8.3536,7.9998 8.5536,7.8998 C8.7536,7.7998 8.9536,7.8998 9.0536,7.9998 L22.0536,20.9998 C22.1536,21.0998 22.2536,21.1998 22.1536,21.3998 C22.0536,21.5998 22.0536,21.6998 21.9536,21.8008 C21.9536,21.9998 19.5536,23.9998 16.3536,23.9998 L16.3536,23.9998 Z" id="Fill-5" fill="#18A3FF" fill-rule="nonzero"></path>
                    <path d="M24.6999,24.9996 C25.1969,24.9996 25.5999,25.4026 25.5999,25.8996 C25.5999,26.3966 25.1969,26.8006 24.6999,26.8006 C24.2029,26.8006 23.7999,26.3966 23.7999,25.8996 C23.7999,25.4026 24.2029,24.9996 24.6999,24.9996" id="Fill-7" fill="#18A3FF" fill-rule="nonzero"></path>
                    <path d="M7.3,5.1998 C7.797,5.1998 8.2,5.6028 8.2,6.0998 C8.2,6.5968 7.797,6.9998 7.3,6.9998 C6.803,6.9998 6.4,6.5968 6.4,6.0998 C6.4,5.6028 6.803,5.1998 7.3,5.1998" id="Fill-9" fill="#18A3FF" fill-rule="nonzero"></path>
                </g>
            </g>
        </g>
    </g>
</svg>